{"title":"DISNEYS FANTASIA-a h.264 tfkc RELEASE BY STIG","uid":5012583,"size":947781383,"categoryP":"video","categoryS":"handheld","magnet":"?xt=urn:btih:0b3f8b1cd1fdce1bb41c4cb6a819a68a1851e946&amp;dn=DISNEYS+FANTASIA-a+h.264+tfkc+RELEASE+BY+STIG&amp;tr=udp%3A%2F%2Ftracker.openbittorrent.com%3A80&amp;tr=udp%3A%2F%2Fopen.demonii.com%3A1337&amp;tr=udp%3A%2F%2Ftracker.coppersurfer.tk%3A6969&amp;tr=udp%3A%2F%2Fexodus.desync.com%3A6969","seeders":0,"leechers":1,"uploader":"alanwatson","files":5,"time":1248075929,"description":"Format                           : MPEG-4\nFormat profile                   : Base Media / Version 2\nCodec ID                         : mp42\nFile size                        : 902 MiB\nDuration                         : 2h 4mn\nOverall bit rate                 : 1 014 Kbps\nEncoded date                     : UTC 2009-07-18 12:15:58\nTagged date                      : UTC 2009-07-18 17:22:23\nWriting application              : HandBrake 0.9.3 2008112300\n\nVideo\nID                               : 1\nFormat                           : AVC\nFormat/Info                      : Advanced Video Codec\nFormat profile                   : &lt;a class=&quot;__cf_email__&quot; href=&quot;/cdn-cgi/l/email-protection&quot; data-cfemail=&quot;ade0ccc4c3ede199839d&quot;&gt;[email&amp;#160;protected]&lt;/a&gt;&lt;script cf-hash='f9e31' type=&quot;text/javascript&quot;&gt;\n/* &lt;![CDATA[ */!function(){try{var t=&quot;currentScript&quot;in document?document.currentScript:function(){for(var t=document.getElementsByTagName(&quot;script&quot;),e=t.length;e--;)if(t[e].getAttribute(&quot;cf-hash&quot;))return t[e]}();if(t&amp;&amp;t.previousSibling){var e,r,n,i,c=t.previousSibling,a=c.getAttribute(&quot;data-cfemail&quot;);if(a){for(e=&quot;&quot;,r=parseInt(a.substr(0,2),16),n=2;a.length-n;n+=2)i=parseInt(a.substr(n,2),16)^r,e+=String.fromCharCode(i);e=document.createTextNode(e),c.parentNode.replaceChild(e,c)}}}catch(u){}}();/* ]]&gt; */&lt;/script&gt;\nFormat settings, CABAC           : Yes\nFormat settings, ReFrames        : 3 frames\nCodec ID                         : avc1\nCodec ID/Info                    : Advanced Video Coding\nDuration                         : 2h 4mn\nBit rate mode                    : Variable\nBit rate                         : 849 Kbps\nWidth                            : 718 pixels\nHeight                           : 480 pixels\nDisplay aspect ratio             : 4/3\nFrame rate mode                  : Variable\nFrame rate                       : 23.976 fps\nMinimum frame rate               : 14.986 fps\nMaximum frame rate               : 120.000 fps\nResolution                       : 24 bits\nColorimetry                      : 4:2:0\nScan type                        : Progressive\nBits/(Pixel*Frame)               : 0.103\nStream size                      : 755 MiB (84%)\nWriting library                  : x264 core 65\n\n\nAudio\nID                               : 2\nFormat                           : AAC\nFormat/Info                      : Advanced Audio Codec\nFormat version                   : Version 4\nFormat profile                   : LC\nFormat settings, SBR             : No\nCodec ID                         : 40\nDuration                         : 2h 4mn\nBit rate mode                    : Variable\nBit rate                         : 160 Kbps\nMaximum bit rate                 : 256 Kbps\nChannel(s)                       : 2 channels\nChannel positions                : L R\nSampling rate                    : 48.0 KHz\nResolution                       : 16 bits\nStream size                      : 142 MiB (16%)\nLanguage                         : English\nEncoded date                     : UTC 2009-07-18 12:15:59\nTagged date                      : UTC 2009-07-18 17:22:14\n\n","torrent":{"xt":"urn:btih:0b3f8b1cd1fdce1bb41c4cb6a819a68a1851e946","amp;dn":"DISNEYS+FANTASIA-a+h.264+tfkc+RELEASE+BY+STIG","amp;tr":["udp%3A%2F%2Ftracker.openbittorrent.com%3A80","udp%3A%2F%2Fopen.demonii.com%3A1337","udp%3A%2F%2Ftracker.coppersurfer.tk%3A6969","udp%3A%2F%2Fexodus.desync.com%3A6969"],"infoHash":"0b3f8b1cd1fdce1bb41c4cb6a819a68a1851e946","infoHashBuffer":{"type":"Buffer","data":[11,63,139,28,209,253,206,27,180,28,76,182,168,25,166,138,24,81,233,70]},"announce":[],"urlList":[]}}